<?xml version="1.0" encoding="utf-8"?>
<!-- Generator: Adobe Illustrator 16.0.0, SVG Export Plug-In . SVG Version: 6.00 Build 0)  -->
<!DOCTYPE svg PUBLIC "-//W3C//DTD SVG 1.1//EN" "http://www.w3.org/Graphics/SVG/1.1/DTD/svg11.dtd">
<svg version="1.1" id="Layer_1" xmlns="http://www.w3.org/2000/svg" xmlns:xlink="http://www.w3.org/1999/xlink" x="0px" y="0px"
	 width="63.5px" height="70.5px" viewBox="0 0 63.5 70.5" enable-background="new 0 0 63.5 70.5" xml:space="preserve">
<g>
	<path fill="#78CD51" d="M27.73,63.557c0,1.428-1.157,2.582-2.584,2.582H10.291c-5.698,0-10.334-4.635-10.334-10.334v-45.47
		C-0.043,4.636,4.593,0,10.291,0h31.765c5.698,0,10.333,4.636,10.333,10.334v27.386c0,1.427-1.156,2.583-2.583,2.583
		c-1.426,0-2.584-1.156-2.584-2.583V10.334c0-2.849-2.317-5.167-5.166-5.167H10.291c-2.849,0-5.167,2.318-5.167,5.167v45.47
		c0,2.85,2.318,5.168,5.167,5.168h14.855C26.573,60.973,27.73,62.129,27.73,63.557z M58.169,42.079
		c-1.16-0.83-2.772-0.563-3.604,0.597L41.83,60.463c-0.347,0.404-0.784,0.49-1.016,0.506c-0.241,0.018-0.708-0.014-1.107-0.395
		l-8.245-7.918c-1.028-0.986-2.664-0.955-3.653,0.076c-0.988,1.027-0.955,2.664,0.074,3.652l8.253,7.924
		c1.235,1.176,2.885,1.83,4.582,1.83c0.146,0,0.292-0.004,0.439-0.012c1.849-0.125,3.575-1.023,4.737-2.469
		c0.029-0.037,0.059-0.074,0.087-0.113l12.786-17.861C59.598,44.523,59.331,42.909,58.169,42.079z M39.472,15.502H12.86
		c-1.427,0-2.583,1.156-2.583,2.583c0,1.427,1.157,2.584,2.583,2.584h26.612c1.426,0,2.584-1.157,2.584-2.584
		C42.056,16.658,40.897,15.502,39.472,15.502z M42.056,28.42c0-1.428-1.158-2.583-2.584-2.583H12.86
		c-1.427,0-2.583,1.156-2.583,2.583c0,1.427,1.157,2.583,2.583,2.583h26.612C40.897,31.003,42.056,29.847,42.056,28.42z
		 M12.86,36.17c-1.427,0-2.583,1.157-2.583,2.583s1.157,2.583,2.583,2.583h16.163c1.427,0,2.583-1.157,2.583-2.583
		s-1.157-2.583-2.583-2.583H12.86z"/>
</g>
</svg>
