<?xml version="1.0" encoding="utf-8"?>
<!-- Generator: Adobe Illustrator 16.0.0, SVG Export Plug-In . SVG Version: 6.00 Build 0)  -->
<!DOCTYPE svg PUBLIC "-//W3C//DTD SVG 1.1//EN" "http://www.w3.org/Graphics/SVG/1.1/DTD/svg11.dtd">
<svg version="1.1" id="Layer_1" xmlns="http://www.w3.org/2000/svg" xmlns:xlink="http://www.w3.org/1999/xlink" x="0px" y="0px"
	 width="57.373px" height="60.407px" viewBox="0 0 57.373 60.407" enable-background="new 0 0 57.373 60.407" xml:space="preserve">
<g>
	<path fill="#FFFFFF" stroke="#FFFFFF" stroke-width="0.75" stroke-miterlimit="10" d="M17.703,29.063
		c-0.265,0.341-0.265,0.786,0.002,0.994l0,0c0.266,0.207,0.697,0.097,0.962-0.244l16.694-21.51c0.265-0.341,0.264-0.785-0.002-0.992
		l0,0c-0.267-0.207-0.698-0.098-0.962,0.244L17.703,29.063z"/>
	<path fill="#FFFFFF" stroke="#FFFFFF" stroke-width="0.75" stroke-miterlimit="10" d="M18.221,29.701
		c-0.271-0.336-0.705-0.437-0.967-0.225l0,0c-0.263,0.212-0.254,0.657,0.018,0.993l17.13,21.165
		c0.271,0.335,0.704,0.435,0.966,0.223l0,0c0.263-0.212,0.254-0.656-0.017-0.993L18.221,29.701z"/>
</g>
</svg>
