<?xml version="1.0" encoding="utf-8"?>
<!-- Generator: Adobe Illustrator 16.0.0, SVG Export Plug-In . SVG Version: 6.00 Build 0)  -->
<!DOCTYPE svg PUBLIC "-//W3C//DTD SVG 1.1//EN" "http://www.w3.org/Graphics/SVG/1.1/DTD/svg11.dtd">
<svg version="1.1" id="Layer_1" xmlns="http://www.w3.org/2000/svg" xmlns:xlink="http://www.w3.org/1999/xlink" x="0px" y="0px"
	 width="63.5px" height="70.5px" viewBox="0 0 63.5 70.5" enable-background="new 0 0 63.5 70.5" xml:space="preserve">
<g>
	<path fill="#FF6C60" d="M13.906,21.673h26.617c1.427,0,2.584-1.157,2.584-2.584c0-1.427-1.157-2.584-2.584-2.584H13.906
		c-1.427,0-2.584,1.157-2.584,2.584C11.322,20.517,12.479,21.673,13.906,21.673z"/>
	<path fill="#FF6C60" d="M13.906,32.01h26.617c1.427,0,2.584-1.157,2.584-2.584c0-1.428-1.157-2.584-2.584-2.584H13.906
		c-1.427,0-2.584,1.157-2.584,2.584C11.322,30.853,12.479,32.01,13.906,32.01z"/>
	<path fill="#FF6C60" d="M13.906,42.348h16.166c1.427,0,2.583-1.158,2.583-2.584c0-1.429-1.155-2.586-2.583-2.586H13.906
		c-1.427,0-2.584,1.157-2.584,2.586C11.322,41.189,12.479,42.348,13.906,42.348z"/>
	<path fill="#FF6C60" d="M26.195,61.986H11.336c-2.85,0-5.168-2.319-5.168-5.168V11.336c0-2.849,2.319-5.168,5.168-5.168h31.771
		c2.85,0,5.168,2.319,5.168,5.168v27.393c0,1.426,1.156,2.584,2.584,2.584s2.584-1.158,2.584-2.584V11.336
		C53.443,5.637,48.807,1,43.107,1H11.336C5.637,1,1,5.637,1,11.336v45.482c0,5.699,4.637,10.336,10.336,10.336h14.859
		c1.427,0,2.584-1.156,2.584-2.584C28.779,63.145,27.623,61.986,26.195,61.986z"/>
	<path fill="#FF6C60" d="M30.25,56c0,7.029,5.721,12.75,12.75,12.75S55.75,63.029,55.75,56S50.029,43.25,43,43.25
		S30.25,48.971,30.25,56z M43,66.471c-5.773,0-10.471-4.697-10.471-10.471c0-2.477,0.867-4.754,2.311-6.548l14.709,14.709
		C47.754,65.604,45.477,66.471,43,66.471z M53.471,56c0,2.477-0.867,4.754-2.311,6.548L36.452,47.839
		c1.794-1.442,4.071-2.31,6.548-2.31C48.773,45.529,53.471,50.227,53.471,56z"/>
</g>
</svg>
