<?xml version="1.0" encoding="utf-8"?>
<!-- Generator: Adobe Illustrator 16.0.0, SVG Export Plug-In . SVG Version: 6.00 Build 0)  -->
<!DOCTYPE svg PUBLIC "-//W3C//DTD SVG 1.1//EN" "http://www.w3.org/Graphics/SVG/1.1/DTD/svg11.dtd">
<svg version="1.1" id="Layer_1" xmlns="http://www.w3.org/2000/svg" xmlns:xlink="http://www.w3.org/1999/xlink" x="0px" y="0px"
	 width="63.5px" height="70.5px" viewBox="0 0 63.5 70.5" enable-background="new 0 0 63.5 70.5" xml:space="preserve">
<g>
	<path fill="#F1C500" d="M13.906,21.673h26.617c1.427,0,2.584-1.157,2.584-2.584c0-1.427-1.157-2.584-2.584-2.584H13.906
		c-1.427,0-2.584,1.157-2.584,2.584C11.322,20.517,12.479,21.673,13.906,21.673z"/>
	<path fill="#F1C500" d="M13.906,32.01h26.617c1.427,0,2.584-1.157,2.584-2.584c0-1.428-1.157-2.584-2.584-2.584H13.906
		c-1.427,0-2.584,1.157-2.584,2.584C11.322,30.853,12.479,32.01,13.906,32.01z"/>
	<path fill="#F1C500" d="M13.906,42.347h16.166c1.427,0,2.583-1.157,2.583-2.584c0-1.428-1.156-2.585-2.583-2.585H13.906
		c-1.427,0-2.584,1.157-2.584,2.585C11.322,41.189,12.479,42.347,13.906,42.347z"/>
	<path fill="#F1C500" d="M26.195,61.986H11.336c-2.85,0-5.168-2.319-5.168-5.168V11.336c0-2.849,2.319-5.168,5.168-5.168h31.771
		c2.85,0,5.168,2.319,5.168,5.168v27.392c0,1.427,1.157,2.584,2.585,2.584c1.427,0,2.584-1.157,2.584-2.584V11.336
		C53.444,5.637,48.807,1,43.107,1H11.336C5.637,1,1,5.637,1,11.336v45.482c0,5.699,4.637,10.336,10.336,10.336h14.859
		c1.427,0,2.584-1.156,2.584-2.584C28.779,63.144,27.623,61.986,26.195,61.986z"/>
	<g>
		<path fill="#F1C500" d="M43,57.923c-0.191,0-0.382-0.064-0.573-0.19c-0.254-0.191-7-5.282-7-11.836
			c0-0.509,0.445-0.955,0.955-0.955h13.235c0.51,0,0.955,0.445,0.955,0.955c0,6.554-6.745,11.645-7,11.899
			C43.382,57.858,43.191,57.923,43,57.923z M37.4,46.851c0.509,4.137,4.2,7.699,5.6,8.909c1.463-1.21,5.091-4.772,5.6-8.909H37.4z"
			/>
		<path fill="#F1C500" d="M49.617,69.059H36.382c-0.509,0-0.955-0.445-0.955-0.955c0-6.554,6.745-11.644,7-11.899
			c0.318-0.254,0.827-0.254,1.146,0c0.254,0.191,7,5.346,7,11.899C50.572,68.613,50.127,69.059,49.617,69.059z M37.4,67.149h11.263
			c-0.51-4.136-4.2-7.699-5.6-8.909C41.537,59.45,37.909,63.014,37.4,67.149z"/>
		<path fill="#F1C500" d="M43,60.023c0,0-3.627,2.671-3.627,6.044h7.191C46.627,62.759,43,60.023,43,60.023z"/>
		<path fill="#F1C500" d="M43,54.423c0,0,1.782-1.337,1.782-2.991h-3.563C41.218,53.086,43,54.423,43,54.423z"/>
	</g>
</g>
</svg>
